<svg version="1.1" id="Livello_1" xmlns="http://www.w3.org/2000/svg" xmlns:xlink="http://www.w3.org/1999/xlink" x="0px" y="0px"
	 width="30px" height="29.997px" viewBox="0 0 30 29.997" enable-background="new 0 0 30 29.997" xml:space="preserve">
<path fill="#FFFFFF" d="M0,14.991C0.024,6.778,6.535,0.213,14.581,0.005c8.545-0.22,15.217,6.519,15.414,14.581
	c0.21,8.546-6.529,15.208-14.591,15.406C6.822,30.204,0.002,23.331,0,14.991z M12.629,23.965c1.262,0,2.476,0,3.723,0
	c0-3.017,0-5.999,0-8.997c0.772,0,1.511-0.006,2.25,0.004c0.192,0.002,0.275-0.048,0.294-0.253c0.036-0.406,0.111-0.808,0.155-1.214
	c0.055-0.508,0.096-1.018,0.147-1.572c-0.972,0-1.899,0-2.839,0c0-0.655-0.001-1.268,0-1.88c0.001-0.598,0.337-0.928,0.944-0.929
	c0.62-0.001,1.241,0,1.873,0c0-1.055,0-2.08,0-3.116c-0.064-0.008-0.111-0.02-0.158-0.019c-1.089,0.011-2.18-0.009-3.268,0.042
	c-1.883,0.089-3.108,1.399-3.115,3.28c-0.003,0.779,0,1.557-0.001,2.336c0,0.102-0.009,0.204-0.015,0.332c-0.613,0-1.193,0-1.788,0
	c0,1.004,0,1.982,0,2.993c0.6,0,1.188,0,1.799,0C12.629,17.988,12.629,20.973,12.629,23.965z"/>
</svg>
