<svg version="1.1" id="Livello_1" xmlns="http://www.w3.org/2000/svg" xmlns:xlink="http://www.w3.org/1999/xlink" x="0px" y="0px"
	 width="214.21px" height="42px" viewBox="0 0 214.21 42" enable-background="new 0 0 214.21 42" xml:space="preserve">
<g class="logo">
	<g>
		<path fill="#FFFFFF" d="M61.48,27.74c0,2.39,0.46,4.5,1.38,6.32c0.92,1.81,2.18,3.31,3.77,4.49c1.6,1.18,3.42,2.05,5.47,2.61
			c2.04,0.56,4.21,0.84,6.5,0.84c5.29,0,9.4-1.19,12.33-3.56c2.92-2.38,4.39-5.48,4.39-9.3c0-2.02-0.42-3.75-1.24-5.19
			c-0.83-1.44-1.86-2.58-3.1-3.43c-1.24-0.84-2.42-1.47-3.54-1.88c-1.13-0.41-2.37-0.78-3.72-1.12c-0.11,0-0.23-0.02-0.34-0.06
			c-0.49-0.15-0.79-0.22-0.9-0.22c-2.81-0.71-4.84-1.26-6.08-1.63s-2.23-0.74-2.98-1.09c-0.75-0.36-1.28-0.77-1.58-1.24
			c-0.3-0.47-0.45-1.1-0.45-1.88c0-1.54,0.6-2.68,1.8-3.43c1.2-0.75,2.63-1.12,4.28-1.12c2.37,0,4.25,0.45,5.66,1.35
			c1.41,0.9,2.17,2.47,2.28,4.72h8.56c0-2.25-0.44-4.2-1.3-5.85c-0.86-1.64-2.03-2.99-3.52-4.04c-1.48-1.05-3.19-1.81-5.12-2.3
			S80.04,0,77.87,0c-1.88,0-3.71,0.25-5.49,0.76c-1.79,0.5-3.4,1.26-4.84,2.27c-1.45,1.01-2.59,2.29-3.44,3.82
			c-0.84,1.54-1.27,3.29-1.27,5.28c0,1.8,0.33,3.34,0.99,4.63c0.66,1.29,1.54,2.36,2.65,3.2c1.1,0.84,2.33,1.53,3.68,2.05
			s2.91,1.03,4.68,1.52c0.63,0.15,1.5,0.37,2.59,0.67c1.65,0.38,2.96,0.71,3.94,1.01c0.97,0.3,1.87,0.67,2.7,1.1
			c0.82,0.43,1.48,0.95,1.97,1.57c0.49,0.62,0.73,1.37,0.73,2.27c0,0.98-0.24,1.79-0.73,2.45c-0.49,0.65-1.14,1.16-1.94,1.54
			c-0.81,0.37-1.65,0.64-2.54,0.79c-0.88,0.15-1.75,0.22-2.61,0.22c-2.59,0-4.72-0.61-6.39-1.82c-1.67-1.22-2.51-3.08-2.51-5.59
			H61.48z"/>
		<path fill="#FFFFFF" d="M106.54,3.31h-7.99v8.71H93.7v5.33h4.85v17.13c0,1.38,0.23,2.53,0.7,3.45c0.47,0.92,1.13,1.63,1.97,2.13
			c0.84,0.51,1.8,0.86,2.87,1.04c1.07,0.19,2.28,0.28,3.63,0.28c1.99,0,3.55-0.09,4.68-0.28v-6.23c-0.76,0.15-1.58,0.22-2.48,0.22
			c-1.35,0-2.25-0.22-2.7-0.67c-0.45-0.45-0.68-1.35-0.68-2.69V17.35h5.86v-5.33h-5.86V3.31z"/>
		<path fill="#FFFFFF" d="M140.15,12.02h-8v15.21c0,2.96-0.48,5.08-1.46,6.38c-0.98,1.29-2.55,1.93-4.73,1.93
			c-1.8,0-3.1-0.58-3.91-1.74c-0.81-1.16-1.21-2.95-1.21-5.39V12.02h-8v17.85c0,1.91,0.16,3.58,0.48,5
			c0.32,1.42,0.88,2.66,1.69,3.71c0.81,1.04,1.91,1.85,3.29,2.41c1.39,0.56,3.12,0.84,5.18,0.84c1.77,0,3.45-0.41,5.04-1.23
			c1.6-0.83,2.88-2.02,3.86-3.6h0.17v4.05h7.6V12.02z"/>
		<path fill="#FFFFFF" d="M163.46,26.45c0,1.27-0.11,2.46-0.34,3.56c-0.22,1.11-0.61,2.1-1.15,2.98c-0.55,0.88-1.26,1.57-2.14,2.08
			c-0.88,0.5-1.96,0.75-3.24,0.75c-1.2,0-2.24-0.26-3.12-0.78c-0.89-0.53-1.62-1.24-2.2-2.14c-0.58-0.89-1.01-1.9-1.29-3
			c-0.29-1.1-0.43-2.24-0.43-3.4c0-1.23,0.12-2.4,0.37-3.51c0.24-1.1,0.65-2.09,1.21-2.97c0.56-0.88,1.29-1.57,2.19-2.05
			c0.91-0.49,1.99-0.73,3.27-0.73c1.24,0,2.31,0.24,3.21,0.73c0.9,0.48,1.61,1.16,2.14,2.02c0.52,0.86,0.91,1.83,1.15,2.92
			C163.34,24,163.46,25.17,163.46,26.45z M163.57,41.05h7.6V0.96h-7.99v14.59h-0.12c-0.86-1.38-2.07-2.45-3.63-3.2
			c-1.55-0.75-3.21-1.12-4.98-1.12c-2.06,0-3.91,0.4-5.54,1.21c-1.64,0.8-3,1.92-4.09,3.34c-1.08,1.42-1.9,3.03-2.44,4.83
			c-0.55,1.79-0.82,3.68-0.82,5.67c0,2.06,0.27,4.01,0.82,5.87c0.54,1.85,1.36,3.51,2.47,4.97c1.11,1.46,2.49,2.61,4.14,3.45
			c1.65,0.84,3.53,1.26,5.63,1.26c1.95,0,3.69-0.36,5.21-1.09c1.52-0.73,2.73-1.86,3.63-3.4h0.11V41.05z"/>
		<path fill="#FFFFFF" d="M182.02,0.96h-7.99v7.46h7.99V0.96z M174.03,41.05h7.99V12.02h-7.99V41.05z"/>
		<path fill="#FFFFFF" d="M192.08,26.56c0-1.24,0.12-2.41,0.37-3.51c0.24-1.1,0.64-2.1,1.18-2.98c0.54-0.88,1.28-1.57,2.2-2.07
			c0.92-0.51,2.01-0.76,3.29-0.76c1.31,0,2.43,0.25,3.35,0.76c0.92,0.5,1.65,1.19,2.19,2.07c0.55,0.88,0.94,1.88,1.19,2.98
			c0.24,1.1,0.36,2.27,0.36,3.51c0,1.23-0.12,2.4-0.36,3.48c-0.25,1.09-0.64,2.07-1.19,2.95c-0.54,0.88-1.27,1.57-2.19,2.08
			c-0.92,0.5-2.04,0.75-3.35,0.75c-1.28,0-2.37-0.25-3.29-0.75c-0.92-0.51-1.66-1.2-2.2-2.08c-0.54-0.88-0.94-1.86-1.18-2.95
			C192.2,28.96,192.08,27.79,192.08,26.56z M184.09,26.56c0,4.6,1.37,8.3,4.11,11.09c2.74,2.79,6.38,4.18,10.92,4.18
			c4.58,0,8.24-1.39,10.98-4.18c2.74-2.79,4.11-6.49,4.11-11.09c0-4.64-1.37-8.36-4.11-11.15c-2.74-2.79-6.4-4.18-10.98-4.18
			c-4.54,0-8.18,1.39-10.92,4.18C185.46,18.2,184.09,21.92,184.09,26.56z"/>
	</g>
	<g>
		<polygon fill="#FFFFFF" points="0,41.05 8.84,41.05 8.84,24.48 25.67,24.48 25.67,17.63 8.84,17.63 8.84,8.37 26.57,8.37 
			26.57,0.96 0,0.96 		"/>
		<path fill="#FFFFFF" d="M37.33,0.96h-8v7.42h8V0.96z M29.33,41.05h8V12.02h-8V41.05z"/>
		<rect x="40.52" y="0.96" fill="#FFFFFF" width="8" height="40.09"/>
		<rect x="51.71" y="0.96" fill="#FFFFFF" width="7.99" height="40.09"/>
	</g>
</g>
</svg>
